HIERARCHY
ROOT Hips
{
  OFFSET -25.4992 47.4658 0.522821
  CHANNELS 6 Xposition Yposition Zposition Zrotation Xrotation Yrotation
  JOINT Bip01_Pelvis
  {
    OFFSET 0 0 0
    CHANNELS 6 Xposition Yposition Zposition Zrotation Xrotation Yrotation
    JOINT Bip01_Spine
    {
      OFFSET 7.92815 1.03427 -0.957866
      CHANNELS 6 Xposition Yposition Zposition Zrotation Xrotation Yrotation
      JOINT Bip01_Spine1
      {
        OFFSET 14.2482 -0.00839019 0.000894789
        CHANNELS 6 Xposition Yposition Zposition Zrotation Xrotation Yrotation
        JOINT Bip01_Neck
        {
          OFFSET 16.1384 -3.98645 0.000135839
          CHANNELS 6 Xposition Yposition Zposition Zrotation Xrotation Yrotation
          JOINT Bip01_Neck1
          {
            OFFSET 9.69266 -0.00491233 0
            CHANNELS 6 Xposition Yposition Zposition Zrotation Xrotation Yrotation
            JOINT Bip01_Head
            {
              OFFSET 6.2355 0 0
              CHANNELS 6 Xposition Yposition Zposition Zrotation Xrotation Yrotation
              JOINT BN_Mouth_01
              {
                OFFSET 4.58056 2.14338 0
                CHANNELS 6 Xposition Yposition Zposition Zrotation Xrotation Yrotation
                End Site
                {
                  OFFSET 0 0 0
                }
              }
            }
          }
          JOINT Bip01_L_Clavicle
          {
            OFFSET -0.933029 -3.98291 -6.88005
            CHANNELS 6 Xposition Yposition Zposition Zrotation Xrotation Yrotation
            JOINT Bip01_L_UpperArm
            {
              OFFSET 15.6802 0 0
              CHANNELS 6 Xposition Yposition Zposition Zrotation Xrotation Yrotation
              JOINT Bip01_L_Forearm
              {
                OFFSET 15.3149 0 0
                CHANNELS 6 Xposition Yposition Zposition Zrotation Xrotation Yrotation
                JOINT Bip01_L_Hand
                {
                  OFFSET 16.178 0 0
                  CHANNELS 6 Xposition Yposition Zposition Zrotation Xrotation Yrotation
                  JOINT Bip01_L_Finger0
                  {
                    OFFSET 12.9992 0 0
                    CHANNELS 6 Xposition Yposition Zposition Zrotation Xrotation Yrotation
                    End Site
                    {
                      OFFSET 0 0 0
                    }
                  }
                }
              }
              JOINT BN__UpperArm_L_01
              {
                OFFSET 4.92586 2.56729 1.95639
                CHANNELS 6 Xposition Yposition Zposition Zrotation Xrotation Yrotation
                End Site
                {
                  OFFSET 0 0 0
                }
              }
            }
          }
          JOINT Bip01_R_Clavicle
          {
            OFFSET -1.90751 -3.34722 7.0168
            CHANNELS 6 Xposition Yposition Zposition Zrotation Xrotation Yrotation
            JOINT Bip01_R_UpperArm
            {
              OFFSET 15.6801 0 0
              CHANNELS 6 Xposition Yposition Zposition Zrotation Xrotation Yrotation
              JOINT Bip01_R_Forearm
              {
                OFFSET 15.3149 0 0
                CHANNELS 6 Xposition Yposition Zposition Zrotation Xrotation Yrotation
                JOINT Bip01_R_Hand
                {
                  OFFSET 16.1779 0 0
                  CHANNELS 6 Xposition Yposition Zposition Zrotation Xrotation Yrotation
                  JOINT Bip01_R_Finger0
                  {
                    OFFSET 12.9991 0 0
                    CHANNELS 6 Xposition Yposition Zposition Zrotation Xrotation Yrotation
                    End Site
                    {
                      OFFSET 0 0 0
                    }
                  }
                }
              }
              JOINT BN__UpperArm_R_01
              {
                OFFSET 4.92584 2.56728 -1.95638
                CHANNELS 6 Xposition Yposition Zposition Zrotation Xrotation Yrotation
                End Site
                {
                  OFFSET 0 0 0
                }
              }
            }
          }
        }
      }
      JOINT Bip01_L_Thigh
      {
        OFFSET -8.91231 -1.85462 5.82833
        CHANNELS 6 Xposition Yposition Zposition Zrotation Xrotation Yrotation
        JOINT Bip01_L_Calf
        {
          OFFSET 15.7566 0 0
          CHANNELS 6 Xposition Yposition Zposition Zrotation Xrotation Yrotation
          JOINT Bip01_L_HorseLink
          {
            OFFSET 16.2363 0 0
            CHANNELS 6 Xposition Yposition Zposition Zrotation Xrotation Yrotation
            JOINT Bip01_L_Foot
            {
              OFFSET 13.9816 0 0
              CHANNELS 6 Xposition Yposition Zposition Zrotation Xrotation Yrotation
              JOINT Bip01_L_Toe0
              {
                OFFSET 7.68594 5.03696 0
                CHANNELS 6 Xposition Yposition Zposition Zrotation Xrotation Yrotation
                End Site
                {
                  OFFSET 0 0 0
                }
              }
            }
          }
        }
      }
      JOINT Bip01_R_Thigh
      {
        OFFSET -6.80264 -1.57702 -6.62463
        CHANNELS 6 Xposition Yposition Zposition Zrotation Xrotation Yrotation
        JOINT Bip01_R_Calf
        {
          OFFSET 15.7566 0 0
          CHANNELS 6 Xposition Yposition Zposition Zrotation Xrotation Yrotation
          JOINT Bip01_R_HorseLink
          {
            OFFSET 16.2363 0 0
            CHANNELS 6 Xposition Yposition Zposition Zrotation Xrotation Yrotation
            JOINT Bip01_R_Foot
            {
              OFFSET 13.9816 0 0
              CHANNELS 6 Xposition Yposition Zposition Zrotation Xrotation Yrotation
              JOINT Bip01_R_Toe0
              {
                OFFSET 7.68597 5.03696 0
                CHANNELS 6 Xposition Yposition Zposition Zrotation Xrotation Yrotation
                End Site
                {
                  OFFSET 0 0 0
                }
              }
            }
          }
        }
      }
    }
    JOINT BN_Tail_01
    {
      OFFSET -7.9584 -2.82211 0
      CHANNELS 6 Xposition Yposition Zposition Zrotation Xrotation Yrotation
      JOINT BN_Tail_02
      {
        OFFSET 10.9082 0 0.00113176
        CHANNELS 6 Xposition Yposition Zposition Zrotation Xrotation Yrotation
        End Site
        {
          OFFSET 0 0 0
        }
      }
    }
  }
}
MOTION
Frames:	4
Frame Time:	0.0333333
-20 34.109 -0.63666 -158.591 -90 -106.14 -2.23789e-006 -1.03695e-013 4.69494e-007 -91.5965 -15.9998 -92.3923 7.96697 -1.17726 -0.303291 13.7435 1.85748 0.00865357 14.2494 -0.00838372 -0.000903704 9.06133 7.33483 0.989396 16.1424 -3.99014 -1.12873e-006 -25.8393 -5.30941 -6.96422 9.69332 -0.00493076 -3.68548e-007 11.7834 -0.237703 -3.39325 6.23548 -9.81723e-006 8.26101e-008 12.2495 1.46011 6.14989 4.58054 2.14337 2.34071e-009 -108.62 -2.88074 -177.991 -4.2085 -1.37944 -6.67033 -154.265 -0.109456 -79.4027 15.6801 -4.30731e-006 5.71287e-007 -94.8623 -72.8198 -5.64981 15.3148 -3.1626e-006 6.9244e-007 -23.4901 5.0592e-007 1.1041e-005 16.1779 5.28028e-006 -1.01527e-006 160.077 -76.3817 95.9367 12.999 5.45974e-007 -1.13395e-005 2.02108 -1.76635 -39.1534 2.79316 3.86361 -3.00909 -126.021 -79.3773 -131.367 -2.52326 -2.67134 7.11274 -154.484 -3.30598 80.9638 15.6801 2.8037e-006 -2.02384e-007 -33.3417 60.5072 -56.7823 15.3149 -4.86339e-006 -4.25927e-006 -30.4898 2.61125e-005 -3.29419e-005 16.178 -1.406e-006 1.86027e-007 129.442 79.0307 -73.0526 12.9992 -1.42394e-006 5.53441e-006 3.74288 23.9666 31.1848 5.62875 3.46393 2.13408 53.9729 -79.3764 48.6265 -7.46032 3.24994 6.5165 -158.48 19.9306 -162.97 15.7566 -3.53449e-006 -1.51335e-006 -80.1862 -1.03536e-005 -4.73688e-006 16.2363 3.01085e-006 7.3986e-007 92.1279 1.02666e-005 5.35986e-006 13.9816 -3.96636e-006 -4.86492e-007 17.0402 15.7948 -16.5442 7.68593 5.03695 1.27001e-006 111.471 1.86546e-006 -8.91742e-006 -7.45784 2.8398 -6.1103 -120.45 -0.364536 168.29 15.7566 -7.18391e-007 6.28773e-007 -51.4244 3.99025e-007 1.59274e-005 16.2363 5.82365e-006 -1.50268e-006 95.304 -1.83433e-005 -3.36047e-006 13.9816 7.72353e-006 4.17212e-006 -42.9654 -1.96131 -0.460017 7.68594 5.03694 2.87929e-006 115.785 9.02662 -36.848 -7.9584 -2.82211 -1.37659e-008 -18.7989 3.10649 -176.494 10.9082 4.60282e-006 -1.41457e-007 -7.64495 11.3232 -14.6009 
-20 33.3396 -0.50096 -158.641 -90 -106.104 -1.49121e-006 -1.61093e-013 4.88492e-007 -91.6679 -15.7684 -91.6276 7.97482 -1.14512 -0.195954 12.9969 1.63131 -0.0168622 14.2495 -0.00838227 -0.000957727 7.44569 7.22276 -0.129972 16.1424 -3.99014 -2.08498e-006 -24.5123 -5.16502 -6.6773 9.69338 -0.00492574 -1.06091e-006 14.3115 -0.370647 -2.6148 6.23549 -3.16542e-006 -4.89501e-007 11.4619 1.29704 5.62621 4.58055 2.14337 3.32187e-008 -107.737 -2.87664 -177.992 -4.21888 -1.3199 -6.67543 -155.581 -0.0640714 -80.3356 15.6801 -8.23723e-006 -7.21085e-007 -90.0601 -73.6153 -1.2434 15.3148 -3.7211e-006 3.22902e-006 -33.3124 1.66657e-005 -9.8521e-006 16.1779 -1.0221e-007 3.26668e-007 160.084 -75.8883 90.9545 12.999 -4.02376e-006 -5.91033e-006 1.34183 -2.07337 -41.5456 2.79316 3.86361 -3.00909 -126.021 -79.3772 -131.367 -2.60356 -2.57591 7.11924 -155.845 -3.99305 80.0393 15.6801 5.59213e-006 7.94356e-007 -33.7461 60.9724 -55.3854 15.3148 -3.02369e-006 -1.69477e-006 -31.8913 1.27968e-005 -8.90135e-006 16.178 -2.74492e-006 1.03347e-006 130.132 77.8707 -67.027 12.9991 -8.60261e-007 2.634e-006 3.92427 24.708 30.6717 5.62874 3.46393 2.13408 53.9722 -79.3762 48.6257 -7.51114 3.09377 6.42928 -156.925 17.1606 -163.076 15.7566 -3.76871e-006 -2.12224e-006 -84.1817 -7.62558e-006 -1.66782e-007 16.2363 4.05208e-006 -3.08588e-007 91.8611 1.26411e-005 5.85532e-006 13.9816 -3.72136e-006 -6.28637e-007 6.03861 17.5321 -13.4292 7.68593 5.03695 9.28914e-007 114.614 3.20668e-006 -8.92075e-006 -7.51473 2.73374 -6.19905 -122.049 1.83334 168.535 15.7566 3.5483e-006 -1.87666e-006 -76.327 -5.27195e-006 1.47044e-005 16.2363 2.32567e-006 -1.39877e-007 109.719 -4.50454e-006 -8.53114e-006 13.9816 7.7326e-006 2.34103e-006 -39.8723 -0.798687 0.335297 7.68595 5.03695 2.45957e-006 118.291 9.05843 -35.8061 -7.9584 -2.82211 1.09862e-007 -17.5283 3.15548 -175.482 10.9082 3.60727e-006 -1.63407e-006 -1.629 11.4156 -15.4035 
-20 32.8801 -0.319591 -159.194 -90 -105.695 -1.4811e-006 -1.71918e-013 7.16461e-007 -91.7049 -16.3559 -91.1736 7.96379 -1.22677 -0.132267 11.3248 1.37713 0.668296 14.2496 -0.00838416 -0.00100983 4.8083 6.85971 -1.80671 16.1424 -3.99016 8.01296e-007 -22.3659 -4.7467 -6.00682 9.69344 -0.00493705 -3.18327e-007 16.8249 -0.485951 -1.34932 6.23549 -8.94831e-006 6.63533e-008 9.87658 0.929197 4.65294 4.58055 2.14337 -2.27618e-008 -106.855 -2.87252 -177.994 -4.20999 -1.24347 -6.6965 -157.686 0.35382 -81.1343 15.6801 -2.74044e-006 -1.21805e-006 -80.9877 -73.9187 7.07242 15.3149 6.2032e-007 -1.02226e-006 -43.2587 6.98e-006 7.76642e-006 16.1779 3.65441e-006 -1.41021e-006 160.407 -75.4477 87.1928 12.999 -4.62593e-007 -8.93257e-006 0.650277 -2.35177 -43.9415 2.79316 3.86361 -3.0091 -126.021 -79.3772 -131.367 -2.75444 -2.39771 7.12508 -157.945 -3.86811 79.2222 15.6801 -1.75244e-006 1.73441e-006 -34.119 61.5314 -54.6751 15.3149 1.90323e-006 -3.27344e-006 -35.1713 -1.80365e-006 1.45348e-005 16.178 4.00812e-006 -1.13424e-006 132.795 76.7819 -62.0022 12.9991 -1.79453e-006 2.06124e-006 4.51026 24.8373 28.3641 5.62875 3.46393 2.13408 53.9724 -79.3762 48.6259 -7.64161 2.92167 6.29177 -155.352 14.1613 -163.308 15.7566 3.28633e-006 8.34664e-007 -89.4781 2.16243e-005 2.23211e-006 16.2363 -3.37335e-006 -1.26392e-006 94.8092 1.36813e-005 -7.98385e-006 13.9816 2.54976e-006 3.74809e-006 -17.3632 19.1069 -7.50987 7.68593 5.03696 2.67019e-007 122.208 2.85431e-006 -1.15086e-005 -7.49427 2.61734 -6.33717 -117.452 2.96633 169.254 15.7566 6.00875e-007 5.27092e-007 -90.7454 -9.18556e-006 1.22908e-005 16.2363 2.50616e-006 -3.08474e-007 118.56 3.6766e-007 -1.27644e-005 13.9816 1.17679e-005 9.79995e-007 -33.3731 0.930124 0.892147 7.68595 5.03695 3.47413e-006 115.605 10.0833 -32.8203 -7.9584 -2.82211 -7.58533e-008 -16.5729 3.33556 -174.032 10.9082 3.88e-006 2.79154e-007 5.57012 10.5691 -15.8356 
-20 32.8075 -0.107245 -160.142 -90 -104.993 -5.56675e-007 -2.39309e-013 6.16117e-007 -91.7106 -17.5474 -90.981 7.9367 -1.39235 -0.104693 9.00163 1.09542 1.88194 14.2493 -0.00835374 -0.000950729 1.43933 6.37962 -3.87803 16.1424 -3.99016 -1.65872e-006 -19.6597 -4.09181 -5.07511 9.69351 -0.00493424 -8.77339e-007 19.1996 -0.539859 0.247378 6.23549 -9.15335e-006 -6.02655e-007 7.70502 0.525411 3.37561 4.58055 2.14338 -3.16529e-007 -105.972 -2.86855 -177.996 -4.18034 -1.15816 -6.73002 -160.333 1.11304 -81.7252 15.6802 -6.65067e-006 -3.13931e-006 -70.3173 -73.5256 16.6484 15.3149 -2.65793e-006 -5.02933e-007 -52.5916 6.52265e-006 1.00043e-005 16.1779 5.56892e-007 -3.36206e-006 160.693 -75.036 84.486 12.999 -7.3912e-007 -1.1063e-005 -0.0755614 -2.53624 -46.1013 2.79317 3.86362 -3.0091 -126.021 -79.3772 -131.368 -2.94852 -2.1541 7.12536 -160.57 -3.14661 78.5352 15.6801 -3.81024e-006 3.38862e-006 -34.4851 62.2103 -54.4921 15.3149 -2.89147e-006 -5.32838e-006 -39.9254 -1.87516e-006 1.47538e-005 16.178 -4.89911e-007 -1.0209e-006 136.61 75.8156 -57.6714 12.9991 -6.2715e-006 2.36578e-006 5.37093 24.423 24.7424 5.62875 3.46393 2.13408 53.9725 -79.3763 48.626 -7.82626 2.7393 6.11641 -152.225 11.5616 -163.563 15.7566 -1.44085e-006 1.46153e-006 -93.8756 2.20582e-005 6.91767e-006 16.2363 -1.74975e-006 -3.48539e-007 97.7574 1.46619e-005 -6.38091e-006 13.9816 -2.43037e-007 1.83078e-006 -40.5248 17.8979 -2.69201 7.68593 5.03696 1.69795e-006 129.802 -2.30212e-005 4.30199e-005 -7.4113 2.49773 -6.50793 -109.228 3.55477 170.237 15.7566 3.89842e-006 5.31703e-007 -97.7893 -1.10848e-005 1.01422e-005 16.2363 1.62718e-006 -3.65245e-007 122.655 -1.46514e-006 -1.35223e-005 13.9816 8.10722e-006 2.76808e-006 -24.4885 3.00037 1.03432 7.68595 5.03695 3.15929e-006 108.86 11.2222 -28.0757 -7.9584 -2.82211 2.09017e-007 -15.8695 3.60812 -172.272 10.9082 1.47415e-006 -6.4272e-007 13.4731 9.01029 -15.9187 
